# Blender v2.79 (sub 0) OBJ File: ''
# www.blender.org
mtllib grass_low_poly.mtl
o grass_2_0.001
v -1.733049 -0.072335 2.347370
v 0.000000 -0.072335 -0.000000
v 0.000001 5.763282 0.000001
v -1.733048 4.252549 2.347370
v -2.917808 -0.072334 -0.000000
v 0.000000 -0.072335 -0.000000
v -2.917808 4.252550 0.000001
v 1.733048 -0.072335 -2.347370
v 1.733050 4.252550 -2.347368
v 2.917808 -0.072335 -0.000001
v 2.917809 4.252549 0.000001
vt 0.499320 0.003070
vt 0.002982 0.992559
vt 0.002981 0.003070
vt 0.500018 0.004071
vt 0.004030 0.993559
vt 0.004030 0.004071
vt 0.995659 0.992558
vt 0.995659 0.003070
vt 0.996007 0.993559
vt 0.996006 0.004071
vt 0.499320 0.992558
vt 0.500018 0.993559
vn 0.8045 -0.0000 0.5940
vn -0.0000 -0.0000 1.0000
usemtl grass_mat.001
s off
f 2/1/1 4/2/1 1/3/1
f 6/4/2 7/5/2 5/6/2
f 9/7/1 2/1/1 8/8/1
f 11/9/2 6/4/2 10/10/2
f 2/1/1 3/11/1 4/2/1
f 6/4/2 3/12/2 7/5/2
f 9/7/1 3/11/1 2/1/1
f 11/9/2 3/12/2 6/4/2
