# Blender v2.79 (sub 0) OBJ File: ''
# www.blender.org
mtllib Starfish.mtl
o instance_0.001_ID5
v 0.492711 0.426847 -0.256264
v 0.415224 0.407448 -0.252153
v 0.492711 0.407448 -0.256264
v 0.415224 0.426847 -0.252153
v -0.425384 0.407448 -0.884475
v -0.426541 0.407448 -0.858029
v -0.433230 0.407448 -0.878771
v 0.058233 0.407448 -0.470274
v -0.303117 0.407448 -0.825392
v -0.093515 0.407448 -0.724108
v 0.147994 0.407448 -0.561790
v 0.156479 0.407448 -0.376531
v 0.276799 0.407448 -0.475220
v 0.156479 0.407448 -0.357131
v 0.201776 0.407448 -0.211564
v 0.228259 0.407448 -0.211564
v 0.246650 0.407448 -0.205393
v 0.290166 0.407448 -0.036311
v 0.320084 0.407448 -0.539622
v 0.421911 0.407448 0.201184
v 0.393026 0.407448 -0.214171
v 0.357528 0.407448 -0.808618
v 0.430979 0.407448 -0.063690
v 0.483754 0.407448 0.337794
v 0.487951 0.407448 0.101346
v 0.550305 0.407448 0.337794
v 0.519602 0.407448 0.193032
v -0.328549 0.407448 -0.078094
v -0.443306 0.407448 0.129073
v -0.443306 0.407448 0.098972
v -0.437995 0.407448 0.132730
v -0.394614 0.407448 0.093936
v -0.250008 0.407448 -0.035379
v -0.224531 0.407448 -0.165389
v 0.001660 0.407448 -0.137475
v -0.089167 0.407448 -0.241293
v 0.339805 0.407448 -1.194742
v 0.357528 0.407448 -0.984902
v 0.318757 0.407448 -1.194742
v 0.434554 0.407448 -0.999948
v 0.400508 0.407448 -0.232070
v 0.409994 0.407448 -0.428553
v 0.442098 0.407448 -0.499197
v 0.466578 0.407448 -0.808618
v 0.423477 0.407448 -0.414605
v 0.537901 0.407448 -0.393278
v 0.661984 0.407448 -0.299034
v 0.667724 0.407448 -0.433104
v 0.816044 0.407448 -0.381181
v 0.809827 0.407448 -0.495488
v 0.938051 0.407448 -0.540196
v 0.965728 0.407448 -0.471055
v 1.128365 0.407448 -0.577789
v 1.147427 0.407448 -0.559660
v 1.147427 0.407448 -0.574186
v 0.661984 0.426847 -0.299034
v 0.339805 0.426847 -1.194742
v 0.318757 0.426847 -1.194742
v 1.147427 0.426847 -0.559660
v 1.147427 0.426847 -0.574186
v 0.965728 0.426847 -0.471055
v 0.816044 0.426847 -0.381181
v 0.483754 0.426847 0.337794
v 0.550305 0.426847 0.337794
v -0.443306 0.426847 0.098972
v -0.443306 0.426847 0.129073
v 0.400508 0.407448 -0.232070
v 0.393026 0.426847 -0.214171
v 0.393026 0.407448 -0.214171
v 0.400508 0.426847 -0.232070
v -0.437995 0.426847 0.132730
v -0.443306 0.426847 0.098972
v -0.443306 0.426847 0.129073
v -0.328549 0.426847 -0.078094
v -0.394614 0.426847 0.093936
v -0.250008 0.426847 -0.035379
v -0.224531 0.426847 -0.165389
v 0.001660 0.426847 -0.137475
v -0.089167 0.426847 -0.241293
v 0.156479 0.426847 -0.357131
v 0.201776 0.426847 -0.211564
v 0.156479 0.426847 -0.376531
v -0.426541 0.426847 -0.858029
v -0.425384 0.426847 -0.884475
v -0.433230 0.426847 -0.878771
v 0.058233 0.426847 -0.470274
v -0.303117 0.426847 -0.825392
v -0.093515 0.426847 -0.724108
v 0.147994 0.426847 -0.561790
v 0.276799 0.426847 -0.475220
v 0.228259 0.426847 -0.211564
v 0.246650 0.426847 -0.205393
v 0.290166 0.426847 -0.036311
v 0.320084 0.426847 -0.539622
v 0.421911 0.426847 0.201184
v 0.357528 0.426847 -0.808618
v 0.357528 0.426847 -0.984902
v 0.430979 0.426847 -0.063690
v 0.483754 0.426847 0.337794
v 0.487951 0.426847 0.101346
v 0.550305 0.426847 0.337794
v 0.519602 0.426847 0.193032
v 0.415224 0.426847 -0.252153
v 0.409994 0.426847 -0.428553
v 0.423477 0.426847 -0.414605
v 0.492711 0.426847 -0.256264
v 0.537901 0.426847 -0.393278
v 0.661984 0.426847 -0.299034
v 0.667724 0.426847 -0.433104
v 0.816044 0.426847 -0.381181
v 0.809827 0.426847 -0.495488
v 0.938051 0.426847 -0.540196
v 0.965728 0.426847 -0.471055
v 1.128365 0.426847 -0.577789
v 1.147427 0.426847 -0.559660
v 1.147427 0.426847 -0.574186
v 0.339805 0.426847 -1.194742
v 0.318757 0.426847 -1.194742
v 0.434554 0.426847 -0.999948
v 0.442098 0.426847 -0.499197
v 0.466578 0.426847 -0.808618
v 0.430979 0.407448 -0.063690
v 0.415224 0.407448 -0.252153
v 0.357528 0.407448 -0.984902
v 0.318757 0.407448 -1.194742
v 0.357528 0.407448 -0.808618
v 0.320084 0.407448 -0.539622
v 0.276799 0.407448 -0.475220
v 0.147994 0.407448 -0.561790
v -0.093515 0.407448 -0.724108
v -0.303117 0.407448 -0.825392
v -0.425384 0.407448 -0.884475
v -0.433230 0.407448 -0.878771
v -0.426541 0.407448 -0.858029
v 0.058233 0.407448 -0.470274
v 0.156479 0.407448 -0.376531
v 0.156479 0.407448 -0.357131
v -0.089167 0.407448 -0.241293
v -0.224531 0.407448 -0.165389
v -0.328549 0.407448 -0.078094
v -0.443306 0.407448 0.098972
v -0.437995 0.407448 0.132730
v -0.443306 0.407448 0.129073
v -0.394614 0.407448 0.093936
v -0.250008 0.407448 -0.035379
v 0.001660 0.407448 -0.137475
v 0.201776 0.407448 -0.211564
v 0.228259 0.407448 -0.211564
v 0.246650 0.407448 -0.205393
v 0.290166 0.407448 -0.036311
v 0.421911 0.407448 0.201184
v 0.483754 0.407448 0.337794
v 0.519602 0.407448 0.193032
v 0.550305 0.407448 0.337794
v 0.487951 0.407448 0.101346
v 1.147427 0.407448 -0.574186
v 1.128365 0.407448 -0.577789
v 0.938051 0.407448 -0.540196
v 0.809827 0.407448 -0.495488
v 0.667724 0.407448 -0.433104
v 0.537901 0.407448 -0.393278
v 0.423477 0.407448 -0.414605
v 0.409994 0.407448 -0.428553
v 0.442098 0.407448 -0.499197
v 0.466578 0.407448 -0.808618
v 0.434554 0.407448 -0.999948
v 0.339805 0.407448 -1.194742
vt -0.587834 -0.625010
vt -0.538579 -0.615052
vt -0.587189 -0.612369
vt -0.539224 -0.627692
vt -0.011243 -0.202453
vt -0.010517 -0.219709
vt -0.006321 -0.206175
vt -0.314630 -0.472725
vt -0.087945 -0.241006
vt -0.219434 -0.307095
vt -0.370939 -0.413010
vt -0.376262 -0.533894
vt -0.451742 -0.469498
vt -0.376262 -0.546552
vt -0.404678 -0.641537
vt -0.421291 -0.641537
vt -0.432829 -0.645563
vt -0.460127 -0.755892
vt -0.478896 -0.427474
vt -0.542774 -0.910860
vt -0.524654 -0.639835
vt -0.502385 -0.251951
vt -0.548463 -0.738026
vt -0.581570 -1.000000
vt -0.584203 -0.845714
vt -0.623320 -1.000000
vt -0.604059 -0.905541
vt -0.071990 -0.728627
vt -0.000000 -0.863807
vt -0.000000 -0.844166
vt -0.003332 -0.866193
vt -0.030546 -0.840879
vt -0.121261 -0.756500
vt -0.137244 -0.671667
vt -0.279139 -0.689881
vt -0.222162 -0.622138
vt -0.491267 -0.000000
vt -0.502385 -0.136923
vt -0.478063 -0.000000
vt -0.550705 -0.127106
vt -0.529347 -0.628156
vt -0.535299 -0.499948
vt -0.555438 -0.453852
vt -0.570795 -0.251951
vt -0.543756 -0.509050
vt -0.615538 -0.522965
vt -0.693379 -0.584461
vt -0.696980 -0.496979
vt -0.790025 -0.530859
vt -0.786125 -0.456272
vt -0.866563 -0.427099
vt -0.883926 -0.472215
vt -0.985952 -0.402570
vt -0.997910 -0.414400
vt -0.997910 -0.404921
vt -0.590171 -0.624642
vt -0.696360 -0.596734
vt -0.483933 0.266564
vt -0.497005 0.254032
vt -0.497005 0.266564
vt -0.483933 0.254032
vt -0.541293 0.266564
vt -0.550315 0.254032
vt -0.550315 0.266564
vt -0.541293 0.254032
vt -0.889260 -0.483593
vt -1.003244 -0.425777
vt -0.890190 -0.483068
vt -0.796289 -0.541711
vt -0.795751 -0.542028
vt -0.699105 -0.595631
vt 0.819636 0.266564
vt 0.778303 0.254032
vt 0.778303 0.266564
vt 0.819636 0.254032
vt 1.151268 0.254032
vt 1.169963 0.266564
vt 1.169963 0.254032
vt 1.151268 0.266564
vt 0.439460 1.269365
vt 0.451656 1.256785
vt 0.451656 1.269365
vt 0.439460 1.256785
vt 0.003339 0.132983
vt 0.000000 0.154874
vt 0.000000 0.135354
vt 0.072141 0.269701
vt 0.030610 0.158140
vt 0.121515 0.242000
vt 0.137531 0.326310
vt 0.279724 0.308208
vt 0.222627 0.375534
vt 0.377050 0.450654
vt 0.405525 0.356255
vt 0.377050 0.463234
vt 0.010539 0.775483
vt 0.011267 0.792632
vt 0.006335 0.788934
vt 0.315289 0.524026
vt 0.088129 0.754318
vt 0.219893 0.688636
vt 0.371716 0.583374
vt 0.452688 0.527234
vt 0.422173 0.356255
vt 0.433735 0.352253
vt 0.461091 0.242604
vt 0.479898 0.568998
vt 0.543911 0.088591
vt 0.525753 0.357945
vt 0.503438 0.743439
vt 0.503438 0.857759
vt 0.549612 0.260359
vt 0.582788 0.000000
vt 0.585427 0.153335
vt 0.624625 0.000000
vt 0.605324 0.093877
vt 0.539707 0.382576
vt 0.536420 0.496971
vt 0.530456 0.369552
vt 0.544895 0.487925
vt 0.588419 0.385242
vt 0.616827 0.474095
vt 0.694831 0.412979
vt 0.698439 0.499922
vt 0.791679 0.466250
vt 0.787771 0.540377
vt 0.868377 0.569371
vt 0.885777 0.524533
vt 0.988017 0.593749
vt 1.000000 0.581992
vt 1.000000 0.591412
vt 0.492296 0.993838
vt 0.479064 0.993838
vt 0.551859 0.867516
vt 0.556601 0.542783
vt 0.571990 0.743439
vt 0.891944 1.269365
vt 0.989505 1.256785
vt 0.989505 1.269365
vt 0.891944 1.256785
vt 0.192931 1.269365
vt 0.208583 1.256785
vt 0.208583 1.269365
vt 0.192931 1.256785
vt -0.465178 1.256785
vt -0.599325 1.269365
vt -0.599325 1.256785
vt -0.465178 1.269365
vt -0.494692 1.256785
vt -0.605512 1.269365
vt -0.605512 1.256785
vt -0.494692 1.269365
vt -0.516475 1.256785
vt -0.687207 1.269365
vt -0.687207 1.256785
vt -0.516475 1.269365
vt -0.333370 1.256785
vt -0.382150 1.269365
vt -0.382150 1.256785
vt -0.333370 1.269365
vt 0.654308 1.256785
vt 0.751869 1.269365
vt 0.654308 1.269365
vt 0.751869 1.256785
vt 0.471382 1.269365
vt 0.471382 1.256785
vt 0.280529 1.256785
vt 0.426870 1.269365
vt 0.280529 1.269365
vt 0.426870 1.256785
vt 0.195163 1.256785
vt 0.195163 1.269365
vt -0.282185 1.269365
vt -0.276088 1.256785
vt -0.276088 1.269365
vt -0.282185 1.256785
vt -0.574577 1.256785
vt -0.588277 1.269365
vt -0.588277 1.256785
vt -0.574577 1.269365
vt -0.882035 1.269365
vt -0.491791 1.256785
vt -0.491791 1.269365
vt -0.882035 1.256785
vt -0.989770 1.256785
vt -0.904404 1.269365
vt -0.989770 1.269365
vt -0.904404 1.256785
vt -0.877139 1.256785
vt -0.889334 1.269365
vt -0.889334 1.256785
vt -0.877139 1.269365
vt -0.173310 1.269365
vt -0.002578 1.256785
vt -0.002578 1.269365
vt -0.173310 1.256785
vt -0.334985 1.256785
vt -0.237425 1.269365
vt -0.334985 1.269365
vt -0.237425 1.256785
vt -0.585098 1.256785
vt -0.499732 1.269365
vt -0.585098 1.269365
vt -0.499732 1.256785
vt -0.812949 1.256785
vt -0.945593 1.269365
vt -0.945593 1.256785
vt -0.812949 1.269365
vt -0.817256 1.269365
vt -0.813203 1.256785
vt -0.813203 1.269365
vt -0.817256 1.256785
vt 0.498818 1.256785
vt 0.535403 1.269365
vt 0.498818 1.269365
vt 0.535403 1.256785
vt 0.376866 1.269365
vt 0.376866 1.256785
vt -0.121381 1.256785
vt 0.049350 1.269365
vt -0.121381 1.269365
vt 0.049350 1.256785
vt -0.286256 1.256785
vt -0.152110 1.269365
vt -0.286256 1.269365
vt -0.152110 1.256785
vt -0.637936 1.256785
vt -0.621287 1.269365
vt -0.637936 1.269365
vt -0.621287 1.256785
vt -0.900268 1.256785
vt -0.888073 1.269365
vt -0.900268 1.269365
vt -0.888073 1.256785
vt -1.092043 1.256785
vt -1.201800 1.269365
vt -1.201800 1.256785
vt -1.092043 1.269365
vt -1.243599 1.256785
vt -1.414331 1.269365
vt -1.414331 1.256785
vt -1.243599 1.269365
vt -1.408331 1.256785
vt -1.502600 1.269365
vt -1.502600 1.256785
vt -1.408331 1.269365
vt 1.142873 1.269365
vt 1.235900 1.256785
vt 1.235900 1.269365
vt 1.142873 1.256785
vt 1.129473 1.269365
vt 1.190449 1.256785
vt 1.190449 1.269365
vt 1.129473 1.256785
vt 1.019717 1.269365
vt 1.019717 1.256785
vt 1.088316 1.256785
vt 1.100511 1.269365
vt 1.088316 1.269365
vt 1.100511 1.256785
vt 0.720741 1.256785
vt 0.842692 1.269365
vt 0.720741 1.269365
vt 0.842692 1.256785
vt 0.509189 1.269365
vt 0.594555 1.256785
vt 0.594555 1.269365
vt 0.509189 1.256785
vt 0.335501 1.256785
vt 0.433062 1.269365
vt 0.335501 1.269365
vt 0.433062 1.256785
vt 0.362438 1.269365
vt 0.447804 1.256785
vt 0.447804 1.269365
vt 0.362438 1.256785
vt 0.670407 1.256785
vt 0.743578 1.269365
vt 0.670407 1.269365
vt 0.743578 1.256785
vt 0.869497 1.269365
vt 0.881692 1.256785
vt 0.881692 1.269365
vt 0.869497 1.256785
vt 0.247333 1.269365
vt 0.296114 1.256785
vt 0.296114 1.269365
vt 0.247333 1.256785
vt 0.334579 1.269365
vt 0.529701 1.256785
vt 0.529701 1.269365
vt 0.334579 1.256785
vt 0.373204 1.269365
vt 0.495155 1.256785
vt 0.495155 1.269365
vt 0.373204 1.256785
vt 0.383860 1.269365
vt 0.520033 1.256785
vt 0.520033 1.269365
vt 0.383860 1.256785
vn 0.1497 0.0000 0.9887
vn 0.0193 -0.9316 0.3629
vn 0.1089 -0.6859 0.7195
vn 0.0530 0.0000 0.9986
vn -0.0000 -1.0000 0.0000
vn -0.0000 -0.7858 0.6185
vn 0.0000 -0.6551 0.7556
vn -0.5857 -0.8105 0.0000
vn -0.5220 -0.8529 0.0000
vn -0.0000 -0.7899 -0.6132
vn 0.0000 -0.6622 -0.7493
vn 0.2639 -0.6809 0.6832
vn 0.3512 -0.7014 0.6202
vn 0.3325 -0.7170 0.6126
vn 0.6752 -0.6050 0.4219
vn 0.6664 -0.7456 0.0000
vn 0.3604 0.0000 0.9328
vn 0.0000 0.0000 -1.0000
vn 0.8480 0.0000 0.5299
vn 1.0000 0.0000 0.0000
vn 0.4770 0.0000 0.8789
vn 0.4928 0.0000 0.8701
vn 0.0000 0.0000 1.0000
vn -1.0000 0.0000 0.0000
vn 0.8707 -0.0000 0.4918
vn 0.6170 0.7856 0.0460
vn 0.9972 -0.0000 0.0744
vn 0.5907 0.7346 0.3337
vn 0.0510 0.5909 0.8051
vn -0.4381 0.8529 -0.2839
vn -0.3322 0.8105 0.4824
vn -0.5527 0.6752 -0.4885
vn 0.4714 0.7071 0.5271
vn 0.3513 0.7478 0.5634
vn -0.4133 0.6867 -0.5981
vn 0.2544 0.7106 0.6560
vn -0.3275 0.6993 -0.6354
vn -0.4456 0.8495 -0.2825
vn 0.1168 0.7490 0.6521
vn -0.5426 0.8073 0.2322
vn -0.6271 0.6477 0.4328
vn -0.0708 0.6077 -0.7910
vn -0.7635 0.5959 -0.2489
vn -0.4587 0.7171 0.5248
vn 0.3077 0.7071 -0.6367
vn 0.3595 0.6915 -0.6265
vn 0.3944 0.7071 -0.5869
vn -0.0821 0.9045 -0.4184
vn -0.1075 0.7452 0.6581
vn -0.4064 0.8318 0.3782
vn -0.6815 0.6796 0.2715
vn -0.6056 0.7614 -0.2314
vn -0.6234 0.7164 0.3134
vn -0.6892 0.7230 -0.0477
vn -0.6825 0.7282 0.0625
vn 0.6682 0.7168 -0.1992
vn -0.5634 0.7858 0.2551
vn 0.6684 0.7071 -0.2307
vn 0.7391 0.6551 -0.1568
vn 0.6942 0.6935 -0.1927
vn 0.2931 0.9316 0.2148
vn 0.5063 0.8579 -0.0874
vn 0.2949 0.7824 -0.5485
vn -0.0000 1.0000 0.0000
vn -0.0365 0.7650 -0.6430
vn -0.2415 0.7204 -0.6502
vn -0.2619 0.6984 -0.6661
vn -0.1893 0.6916 -0.6970
vn -0.0031 0.6668 -0.7452
vn 0.1238 0.7456 -0.6548
vn 0.5514 0.7899 -0.2682
vn -0.7369 0.6622 0.1361
vn 0.7017 0.6763 -0.2242
vn 0.7186 0.6702 0.1856
vn 0.7319 0.6806 -0.0318
vn 0.9583 0.0000 -0.2857
vn 0.8066 -0.0000 0.5911
vn -0.9958 0.0000 0.0912
vn -0.9834 0.0000 0.1817
vn -0.9976 0.0000 -0.0691
vn -0.9341 0.0000 -0.3570
vn -0.1924 0.0000 -0.9813
vn 0.5578 0.0000 -0.8300
vn 0.4977 0.0000 -0.8673
vn 0.4351 0.0000 -0.9004
vn -0.0891 0.0000 -0.9960
vn -0.9508 0.0000 -0.3099
vn -0.8230 0.0000 0.5680
vn -0.6581 0.0000 0.7529
vn -0.9193 0.0000 0.3935
vn -0.8445 0.0000 -0.5355
vn -0.4581 0.0000 -0.8889
vn -0.5685 0.0000 -0.8227
vn -0.7493 0.0000 -0.6622
vn -0.8392 0.0000 -0.5439
vn 0.0633 -0.0000 0.9980
vn -0.5671 -0.0000 0.8236
vn 0.6666 0.0000 0.7454
vn 0.5291 0.0000 0.8486
vn 0.3616 -0.0000 0.9323
vn 0.1764 -0.0000 0.9843
vn -0.1612 -0.0000 0.9869
vn -0.7320 -0.0000 0.6813
vn -0.9290 -0.0000 0.3702
vn -0.8935 -0.0000 0.4491
vn -0.9110 -0.0000 0.4124
vn 0.9636 0.0000 -0.2674
vn 0.9782 0.0000 -0.2075
vn 0.9453 0.0000 -0.3263
vn 0.1857 0.0000 -0.9826
vn -0.0041 0.0000 -1.0000
vn -0.2622 0.0000 -0.9650
vn -0.3659 0.0000 -0.9307
vn -0.3482 0.0000 -0.9374
vn -0.0567 0.0000 -0.9984
vn 0.4735 0.0000 -0.8808
vn 0.9854 0.0000 -0.1701
vn 0.9682 0.0000 0.2501
vn 0.9991 0.0000 -0.0434
vn 0.9526 0.0000 -0.3044
vn 0.8993 0.0000 -0.4374
usemtl untitled3.002
s 1
f 1/1/1 2/2/2 3/3/3
f 2/2/2 1/1/1 4/4/4
f 5/5/5 6/6/5 7/7/5
f 6/6/5 5/5/5 8/8/5
f 8/8/5 5/5/5 9/9/5
f 8/8/5 9/9/5 10/10/5
f 8/8/5 10/10/5 11/11/5
f 8/8/5 11/11/5 12/12/5
f 12/12/5 11/11/5 13/13/5
f 12/12/5 13/13/5 14/14/5
f 14/14/5 13/13/5 15/15/5
f 15/15/5 13/13/5 16/16/5
f 16/16/5 13/13/5 17/17/5
f 17/17/5 13/13/5 18/18/5
f 18/18/5 13/13/5 19/19/5
f 18/18/5 19/19/5 20/20/5
f 20/20/5 19/19/5 21/21/5
f 21/21/5 19/19/5 22/22/5
f 20/20/5 21/21/5 23/23/5
f 20/20/5 23/23/5 24/24/6
f 24/24/6 23/23/5 25/25/5
f 24/24/6 25/25/5 26/26/7
f 26/26/7 25/25/5 27/27/5
f 28/28/5 29/29/8 30/30/9
f 29/29/8 28/28/5 31/31/5
f 31/31/5 28/28/5 32/32/5
f 32/32/5 28/28/5 33/33/5
f 33/33/5 28/28/5 34/34/5
f 33/33/5 34/34/5 35/35/5
f 35/35/5 34/34/5 36/36/5
f 35/35/5 36/36/5 14/14/5
f 35/35/5 14/14/5 15/15/5
f 37/37/10 38/38/5 39/39/11
f 38/38/5 37/37/10 40/40/5
f 38/38/5 40/40/5 22/22/5
f 22/22/5 40/40/5 21/21/5
f 21/21/5 40/40/5 41/41/5
f 41/41/5 40/40/5 42/42/5
f 42/42/5 40/40/5 43/43/5
f 43/43/5 40/40/5 44/44/5
f 42/42/5 2/2/2 41/41/5
f 2/2/2 42/42/5 45/45/5
f 2/2/2 45/45/5 3/3/3
f 3/3/3 45/45/5 46/46/5
f 3/3/3 46/46/5 47/47/12
f 47/47/12 46/46/5 48/48/5
f 47/47/12 48/48/5 49/49/13
f 49/49/13 48/48/5 50/50/5
f 49/49/13 50/50/5 51/51/5
f 49/49/13 51/51/5 52/52/14
f 52/52/14 51/51/5 53/53/5
f 52/52/14 53/53/5 54/54/15
f 54/54/15 53/53/5 55/55/16
f 47/47/12 1/56/1 3/3/3
f 1/56/1 47/47/12 56/57/17
f 39/58/11 57/59/18 37/60/10
f 57/59/18 39/58/11 58/61/18
f 55/62/16 59/63/19 54/64/15
f 59/63/19 55/62/16 60/65/20
f 54/54/15 61/66/21 52/52/14
f 61/66/21 54/54/15 59/67/19
f 61/68/21 49/49/13 52/52/14
f 49/49/13 61/68/21 62/69/22
f 62/70/22 47/47/12 49/49/13
f 47/47/12 62/70/22 56/71/17
f 26/72/7 63/73/23 24/74/6
f 63/73/23 26/72/7 64/75/23
f 65/76/24 29/77/8 66/78/24
f 29/77/8 65/76/24 30/79/9
usemtl untitled4.002
f 67/80/25 68/81/26 69/82/27
f 68/81/26 67/80/25 70/83/28
f 71/84/29 72/85/30 73/86/31
f 72/85/30 71/84/29 74/87/32
f 74/87/32 71/84/29 75/88/33
f 74/87/32 75/88/33 76/89/34
f 74/87/32 76/89/34 77/90/35
f 77/90/35 76/89/34 78/91/36
f 77/90/35 78/91/36 79/92/37
f 79/92/37 78/91/36 80/93/38
f 80/93/38 78/91/36 81/94/39
f 80/93/38 81/94/39 82/95/40
f 83/96/41 84/97/42 85/98/43
f 84/97/42 83/96/41 86/99/44
f 84/97/42 86/99/44 87/100/45
f 87/100/45 86/99/44 88/101/46
f 88/101/46 86/99/44 89/102/47
f 89/102/47 86/99/44 82/95/40
f 89/102/47 82/95/40 90/103/48
f 90/103/48 82/95/40 81/94/39
f 90/103/48 81/94/39 91/104/49
f 90/103/48 91/104/49 92/105/50
f 90/103/48 92/105/50 93/106/51
f 90/103/48 93/106/51 94/107/52
f 94/107/52 93/106/51 95/108/53
f 94/107/52 95/108/53 68/109/26
f 94/107/52 68/109/26 96/110/54
f 96/110/54 68/109/26 97/111/55
f 68/109/26 95/108/53 98/112/56
f 98/112/56 95/108/53 99/113/57
f 98/112/56 99/113/57 100/114/58
f 100/114/58 99/113/57 101/115/59
f 100/114/58 101/115/59 102/116/60
f 103/117/61 104/118/62 70/119/28
f 104/118/62 103/117/61 105/120/63
f 105/120/63 103/117/61 106/121/64
f 105/120/63 106/121/64 107/122/65
f 107/122/65 106/121/64 108/123/64
f 107/122/65 108/123/64 109/124/66
f 109/124/66 108/123/64 110/125/64
f 109/124/66 110/125/64 111/126/67
f 111/126/67 110/125/64 112/127/68
f 112/127/68 110/125/64 113/128/64
f 112/127/68 113/128/64 114/129/69
f 114/129/69 113/128/64 115/130/64
f 114/129/69 115/130/64 116/131/70
f 97/111/55 117/132/71 118/133/72
f 117/132/71 97/111/55 119/134/73
f 119/134/73 97/111/55 68/109/26
f 119/134/73 68/109/26 70/119/28
f 119/134/73 70/119/28 104/118/62
f 119/134/73 104/118/62 120/135/74
f 119/134/73 120/135/74 121/136/75
f 69/137/27 98/138/56 122/139/76
f 98/138/56 69/137/27 68/140/26
f 123/141/77 70/142/28 67/143/25
f 70/142/28 123/141/77 103/144/61
f 118/145/72 124/146/78 97/147/55
f 124/146/78 118/145/72 125/148/79
f 97/149/55 126/150/80 96/151/54
f 126/150/80 97/149/55 124/152/78
f 96/153/54 127/154/81 94/155/52
f 127/154/81 96/153/54 126/156/80
f 94/157/52 128/158/82 90/159/48
f 128/158/82 94/157/52 127/160/81
f 89/161/47 128/162/82 129/163/83
f 128/162/82 89/161/47 90/164/48
f 130/165/84 89/161/47 129/163/83
f 89/161/47 130/165/84 88/166/46
f 87/167/45 130/168/84 131/169/85
f 130/168/84 87/167/45 88/170/46
f 84/171/42 131/169/85 132/172/86
f 131/169/85 84/171/42 87/167/45
f 133/173/87 84/174/42 132/175/86
f 84/174/42 133/173/87 85/176/43
f 85/177/43 134/178/88 83/179/41
f 134/178/88 85/177/43 133/180/87
f 135/181/89 83/182/41 134/183/88
f 83/182/41 135/181/89 86/184/44
f 82/185/40 135/186/89 136/187/90
f 135/186/89 82/185/40 86/188/44
f 82/189/40 137/190/91 80/191/38
f 137/190/91 82/189/40 136/192/90
f 138/193/92 80/194/38 137/195/91
f 80/194/38 138/193/92 79/196/37
f 77/197/35 138/198/92 139/199/93
f 138/198/92 77/197/35 79/200/37
f 74/201/32 139/202/93 140/203/94
f 139/202/93 74/201/32 77/204/35
f 74/205/32 141/206/95 72/207/30
f 141/206/95 74/205/32 140/208/94
f 142/209/96 73/210/31 143/211/97
f 73/210/31 142/209/96 71/212/29
f 75/213/33 142/214/96 144/215/98
f 142/214/96 75/213/33 71/216/29
f 145/217/99 75/213/33 144/215/98
f 75/213/33 145/217/99 76/218/34
f 78/219/36 145/220/99 146/221/100
f 145/220/99 78/219/36 76/222/34
f 81/223/39 146/224/100 147/225/101
f 146/224/100 81/223/39 78/226/36
f 91/227/49 147/228/101 148/229/102
f 147/228/101 91/227/49 81/230/39
f 92/231/50 148/232/102 149/233/103
f 148/232/102 92/231/50 91/234/49
f 92/235/50 150/236/104 93/237/51
f 150/236/104 92/235/50 149/238/103
f 93/239/51 151/240/105 95/241/53
f 151/240/105 93/239/51 150/242/104
f 95/243/53 152/244/106 99/245/57
f 152/244/106 95/243/53 151/246/105
f 153/247/107 101/248/59 154/249/108
f 101/248/59 153/247/107 102/250/60
f 155/251/109 102/252/60 153/253/107
f 102/252/60 155/251/109 100/254/58
f 122/255/76 100/254/58 155/251/109
f 100/254/58 122/255/76 98/256/56
f 114/257/69 156/258/110 157/259/111
f 156/258/110 114/257/69 116/260/70
f 112/261/68 157/262/111 158/263/112
f 157/262/111 112/261/68 114/264/69
f 159/265/113 112/266/68 158/267/112
f 112/266/68 159/265/113 111/268/67
f 109/269/66 159/270/113 160/271/114
f 159/270/113 109/269/66 111/272/67
f 161/273/115 109/274/66 160/275/114
f 109/274/66 161/273/115 107/276/65
f 105/277/63 161/278/115 162/279/116
f 161/278/115 105/277/63 107/280/65
f 163/281/117 105/282/63 162/283/116
f 105/282/63 163/281/117 104/284/62
f 164/285/118 104/286/62 163/287/117
f 104/286/62 164/285/118 120/288/74
f 165/289/119 120/290/74 164/291/118
f 120/290/74 165/289/119 121/292/75
f 166/293/120 121/294/75 165/295/119
f 121/294/75 166/293/120 119/296/73
f 167/297/121 119/298/73 166/299/120
f 119/298/73 167/297/121 117/300/71
